<?xml version="1.0" standalone="no"?><!DOCTYPE svg PUBLIC "-//W3C//DTD SVG 1.1//EN" "http://www.w3.org/Graphics/SVG/1.1/DTD/svg11.dtd"><svg t="1711534410489" class="icon" viewBox="0 0 1103 1024" version="1.1" xmlns="http://www.w3.org/2000/svg" p-id="4526" xmlns:xlink="http://www.w3.org/1999/xlink" width="215.4296875" height="200"><path d="M370.984384 993.264225h-21.662881c-0.01293 0 9.792691 2.137841 21.662881 0z m390.630109-0.017241c-57.463098 0.017241-62.484439-47.670407-62.837872-59.932822v-73.552938H412.137824v70.673749c0 46.321326-22.986101 59.596629-41.16206 62.812011" fill="#F0F0FF" p-id="4527"></path><path d="M359.062472 1011.578109c-8.732391 0-18.757831-1.57752-23.546423-7.986733l-20.632752-27.567805h54.437364c7.680711-1.499937 25.58082-6.991085 25.58082-45.588598v-87.914403h321.120103v90.534982c1.189605 37.360496 29.037571 42.955088 45.571358 42.955089h0.021551l0.00862 34.481307h-0.034481c-57.450168 0-79.022536-41.299986-80.039734-76.677807l-0.008621-0.495669v-56.312285H429.378478v53.433096c0 21.037908-5.392014 70.906498-55.342498 79.781125v0.01724c-2.155082 0.387915-8.17638 1.340461-14.973508 1.340461z" fill="#6E6E96" p-id="4528"></path><path d="M52.829673 753.744135V121.525057c0-43.192147 35.33472-78.535487 78.535487-78.535487h848.188435c43.192147 0 78.535487 35.34334 78.535487 78.535487v632.219078" fill="#9F9FBD" p-id="4529"></path><path d="M1058.097703 690.914883v90.310853c0 43.192147-35.34334 78.535487-78.535488 78.535488H131.36947c-43.196458 0-78.535487-35.34765-78.535487-78.535488v-90.310853h1005.26372z" fill="#F0F0FF" p-id="4530"></path><path d="M979.562215 877.001877H131.36947c-52.808122 0-95.776141-42.963709-95.776141-95.776141v-107.551507h1039.740717v107.551507c0.00431 52.812432-42.959399 95.776141-95.771831 95.776141z m-909.487578-168.846341v73.0702c0 33.800301 27.494532 61.294834 61.294833 61.294834h848.192745c33.800301 0 61.294834-27.494532 61.294834-61.294834v-73.0702H70.074637z" fill="#6E6E96" p-id="4531"></path><path d="M1075.329736 753.744135h-34.481307V121.525057c0-33.795991-27.494532-61.294834-61.294834-61.294834H131.36516c-33.795991 0-61.294834 27.494532-61.294834 61.294834v632.219078h-34.481307V121.525057c0-52.808122 42.963709-95.776141 95.776141-95.776141h848.188435c52.812432 0 95.776141 42.963709 95.776141 95.776141v632.219078z" fill="#6E6E96" p-id="4532"></path><path d="M52.829673 652.705284h1005.255099v22.184411H52.829673zM412.137824 859.761224h286.643107v50.13151H412.137824z" fill="#6E6E96" opacity=".15" p-id="4533"></path><path d="M585.05727 788.022864h-66.255832a17.240654 17.240654 0 0 1 0-34.481307h66.255832a17.240654 17.240654 0 0 1 0 34.481307zM783.337716 1010.504878H324.697539a17.240654 17.240654 0 0 1 0-34.481307h458.640177a17.240654 17.240654 0 0 1 0 34.481307z" fill="#6E6E96" p-id="4534"></path><path d="M979.562215 800.789568H131.36947c-43.196458 0-78.535487-35.34334-78.535487-78.535487v52.411587c0 43.192147 35.326099 78.539797 78.535487 78.539797h848.192745c43.192147 0 78.544108-35.330409 78.544108-78.539797v-52.411587c-0.00862 43.205078-35.364891 78.535487-78.544108 78.535487z" fill="#6E6E96" opacity=".15" p-id="4535"></path><path d="M122.787935 121.930212h857.722516v495.668791h-857.722516z" fill="#A2C8F2" p-id="4536"></path><path d="M429.063836 611.668218L970.786723 121.930212v158.170067l-359.290911 331.567939z" fill="#DEEFFF" opacity=".31" p-id="4537"></path><path d="M970.786723 280.100279l-359.290911 331.567939h359.290911z" fill="#FFFFFF" opacity=".31" p-id="4538"></path><path d="M980.510451 634.839657h-857.722516a17.240654 17.240654 0 0 1-17.240654-17.240654v-495.668791a17.240654 17.240654 0 0 1 17.240654-17.240653h857.722516a17.240654 17.240654 0 0 1 17.240654 17.240653v495.668791a17.240654 17.240654 0 0 1-17.240654 17.240654z m-840.481862-34.481307h823.241209v-461.187484h-823.241209v461.187484z" fill="#6E6E96" p-id="4539"></path></svg>